<svg width="590" height="134" viewBox="0 0 590 134" fill="none" xmlns="http://www.w3.org/2000/svg">
<g clip-path="url(#clip0_3635_576)">
<path d="M51.1126 93.808C51.1126 100.003 49.3643 105.183 45.8642 109.345C42.1324 113.773 37.2641 115.983 31.2592 115.983C26.8867 115.983 23.3612 114.716 20.6791 112.174C20.4764 111.998 20.2991 111.908 20.1543 111.908C19.8611 111.908 19.5932 112.455 19.3471 113.546C19.0974 114.637 18.8006 115.241 18.4495 115.36C17.9536 115.508 13.7983 115.583 5.98722 115.583C4.15209 115.583 3.23271 115.245 3.23271 114.565C3.23271 114.475 3.26167 114.255 3.31958 113.902C3.90234 109.212 4.19552 100.27 4.19552 87.0799C4.19552 73.8901 3.75755 63.5154 2.88523 54.1919L2.8418 53.7059C2.8418 53.2343 3.29425 52.9679 4.19914 52.9103C4.83981 52.8815 7.37714 52.6583 11.8075 52.248C14.9276 51.9528 17.4613 51.8052 19.4159 51.8052C19.9697 51.8052 20.2448 52.2912 20.2448 53.2667C20.2448 54.4187 20.1724 55.9378 20.0276 57.8277C19.8539 60.1604 19.7489 61.6939 19.7199 62.4319C19.5751 65.3549 19.5028 69.3363 19.5028 74.3833C19.5028 75.2977 19.7344 75.7548 20.2013 75.7548C20.433 75.7548 20.6538 75.636 20.8565 75.4021C23.4807 72.569 26.9193 71.1543 31.1759 71.1543C37.5609 71.1543 42.545 73.3537 46.1284 77.7491C49.4512 81.8205 51.1126 87.1771 51.1126 93.8152V93.808ZM35.2842 93.322C35.2842 90.8741 34.5421 88.8006 33.0545 87.1015C31.5668 85.406 29.6304 84.5564 27.2378 84.5564C24.8453 84.5564 22.8581 85.406 21.4429 87.1015C20.0276 88.797 19.3218 90.8993 19.3218 93.4084C19.3218 95.9175 20.0059 98.099 21.3777 99.6937C22.8364 101.375 24.8163 102.217 27.3247 102.217C29.8331 102.217 31.7695 101.346 33.2282 99.6073C34.5964 97.9838 35.2842 95.8887 35.2842 93.322Z" fill="#0065F2"/>
<path d="M103.842 93.808C103.842 100.003 102.094 105.183 98.5937 109.345C94.8619 113.773 89.9936 115.983 83.9887 115.983C79.6162 115.983 76.0907 114.716 73.4086 112.174C73.2059 111.998 73.0286 111.908 72.8838 111.908C72.5906 111.908 72.3227 112.455 72.0766 113.546C71.8269 114.637 71.53 115.241 71.1789 115.36C70.6831 115.508 66.5278 115.583 58.7167 115.583C56.8816 115.583 55.9622 115.245 55.9622 114.565C55.9622 114.475 55.9912 114.255 56.0491 113.902C56.6318 109.212 56.925 100.27 56.925 87.0799C56.925 73.8901 56.487 63.5154 55.6147 54.1919L55.5713 53.7059C55.5713 53.2343 56.0237 52.9679 56.9286 52.9103C57.5693 52.8815 60.1066 52.6583 64.537 52.248C67.6571 51.9528 70.1908 51.8052 72.1454 51.8052C72.6992 51.8052 72.9743 52.2912 72.9743 53.2667C72.9743 54.4187 72.9019 55.9378 72.7571 57.8277C72.5833 60.1604 72.4784 61.6939 72.4494 62.4319C72.3046 65.3549 72.2322 69.3363 72.2322 74.3833C72.2322 75.2977 72.4639 75.7548 72.9308 75.7548C73.1625 75.7548 73.3833 75.636 73.586 75.4021C76.2102 72.569 79.6488 71.1543 83.9054 71.1543C90.2904 71.1543 95.2745 73.3537 98.8579 77.7491C102.181 81.8205 103.842 87.1771 103.842 93.8152V93.808ZM88.0136 93.322C88.0136 90.8741 87.2716 88.8006 85.784 87.1015C84.2963 85.406 82.3598 84.5564 79.9673 84.5564C77.5748 84.5564 75.5876 85.406 74.1723 87.1015C72.7571 88.797 72.0513 90.8993 72.0513 93.4084C72.0513 95.9175 72.7354 98.099 74.1072 99.6937C75.5659 101.375 77.5458 102.217 80.0542 102.217C82.5625 102.217 84.499 101.346 85.9577 99.6073C87.3259 97.9838 88.0136 95.8887 88.0136 93.322Z" fill="#0065F2"/>
<path d="M116.848 52.0463C115.393 52.0463 113.384 51.9923 110.818 51.8807C107.907 51.7727 105.884 51.7151 104.744 51.7151C104.773 52.8455 104.845 54.937 104.957 57.9932C105.044 60.6103 105.084 62.6874 105.084 64.2281C105.084 65.3009 102.93 65.8373 98.6232 65.8373C94.3159 65.8373 92.3794 65.4917 92.3794 64.8041C92.3794 63.0978 92.4228 60.8947 92.5061 58.1984C92.5929 54.4834 92.6472 52.2947 92.6762 51.6323C85.2054 51.8519 81.2564 51.9635 80.8257 51.9635C80.3117 51.9635 80.0547 51.5387 80.0547 50.682C80.0547 50.4084 80.1959 48.8389 80.4818 45.9734C80.5108 44.3211 80.5687 42.6292 80.6519 40.8941C80.9089 40.4801 81.2926 40.2749 81.8066 40.2749C83.2037 40.2749 85.0135 40.3145 87.2396 40.3973C90.204 40.4801 92.0174 40.5341 92.6726 40.5629C92.6147 38.1402 92.5857 35.5519 92.5857 32.798V28.2983C92.5857 27.7763 92.9549 27.5135 93.6969 27.5135C94.7502 27.5135 96.3139 27.4847 98.3807 27.4307C100.447 27.3767 101.997 27.3479 103.021 27.3479C104.418 27.3479 105.117 27.5819 105.117 28.0499C105.117 29.4286 105.066 31.5201 104.968 34.328C104.867 37.1358 104.82 39.2417 104.82 40.6457C110.923 40.5377 115.071 40.4801 117.268 40.4801C117.865 40.4801 118.165 40.7285 118.165 41.2216C118.165 41.524 118.01 43.2195 117.695 46.301C117.782 47.4565 117.695 49.1773 117.438 51.4632C117.322 51.8483 117.123 52.0427 116.841 52.0427L116.848 52.0463Z" fill="#0065F2"/>
<path d="M114.604 113.158C114.953 109.194 115.188 106.076 115.302 103.802C115.471 100.702 115.633 96.4468 115.789 91.0364C115.946 85.6261 116.024 81.8146 116.024 79.6018C116.024 78.8115 116.018 77.693 116 76.2462C118.219 76.3009 119.981 76.3252 121.28 76.3252C123.096 76.3252 125.219 76.2826 127.637 76.2036C130.055 76.1246 132.136 76.082 133.868 76.082C135.955 76.082 137.44 76.1428 138.324 76.2705C139.491 76.4346 140.513 76.7203 141.391 77.1337C142.27 77.5471 142.997 78.0638 143.581 78.6778C144.23 79.4012 144.741 80.2644 145.108 81.2735C145.523 82.4285 145.734 83.6626 145.734 84.9756C145.734 86.003 145.613 86.9878 145.373 87.924C145.132 88.8601 144.789 89.693 144.344 90.4225C143.899 91.1519 143.406 91.7598 142.853 92.2462C142.3 92.7325 141.764 93.1094 141.241 93.3829C140.718 93.6504 140.008 93.924 139.124 94.1915C140.008 94.3556 140.718 94.538 141.253 94.7446C141.788 94.9513 142.36 95.2857 142.967 95.7477C143.575 96.2097 144.122 96.7994 144.609 97.5167C145.09 98.2401 145.457 99.0425 145.698 99.9361C145.938 100.83 146.058 101.772 146.058 102.763C146.058 104.131 145.848 105.419 145.433 106.629C145.018 107.839 144.435 108.872 143.683 109.742C143.051 110.483 142.221 111.109 141.205 111.632C140.189 112.155 139.142 112.514 138.078 112.714C137.212 112.86 135.63 112.97 133.339 113.036C131.047 113.109 128.611 113.146 126.043 113.146L119.464 113.122L114.611 113.146L114.604 113.158ZM125.177 105.748H129.989C131.258 105.748 132.19 105.669 132.791 105.505C133.525 105.304 134.084 105.043 134.469 104.72C134.854 104.398 135.161 103.954 135.383 103.395C135.606 102.836 135.72 102.216 135.72 101.529C135.72 100.933 135.63 100.41 135.443 99.9605C135.257 99.5106 134.986 99.1337 134.62 98.8237C134.253 98.5197 133.802 98.2948 133.266 98.1611C132.731 98.0273 131.901 97.9605 130.764 97.9605H125.484L125.177 105.748ZM125.749 90.6352H129.309C130.476 90.6352 131.312 90.6048 131.805 90.538C132.298 90.4772 132.779 90.3617 133.248 90.1975C133.717 90.0334 134.12 89.7659 134.463 89.389C134.806 89.0121 135.047 88.5866 135.191 88.1185C135.335 87.6504 135.401 87.1823 135.401 86.7143C135.401 86.0456 135.257 85.4498 134.962 84.927C134.668 84.4042 134.199 84.0152 133.549 83.7659C132.899 83.5106 131.907 83.389 130.572 83.389H126.067L125.755 90.6352H125.749Z" fill="#0065F2"/>
<path d="M178.564 113.158C176.664 113.122 175.076 113.103 173.807 113.103C172.237 113.103 170.662 113.122 169.074 113.158L169.044 109.456C168.443 110.264 167.931 110.872 167.516 111.28C167.101 111.687 166.644 112.04 166.151 112.35C165.658 112.654 165.111 112.921 164.497 113.146C163.89 113.371 163.186 113.547 162.398 113.675C161.604 113.802 160.799 113.863 159.987 113.863C158.67 113.863 157.425 113.699 156.246 113.365C155.067 113.03 154.033 112.465 153.143 111.675C152.253 110.885 151.639 109.979 151.314 108.97C150.99 107.961 150.827 106.787 150.827 105.456C150.827 105.134 150.851 104.629 150.899 103.942L151.302 97.8025C151.417 95.5471 151.525 93.0547 151.627 90.3131C151.693 88.6353 151.729 87.0487 151.729 85.5532C153.798 85.5897 155.56 85.6079 157.01 85.6079C158.459 85.6079 160.095 85.5897 161.863 85.5532L161.087 95.8572C160.973 97.4256 160.907 98.4955 160.901 99.0608C160.895 99.6262 160.889 100.009 160.889 100.21C160.889 102.1 161.244 103.383 161.953 104.052C162.663 104.72 163.511 105.055 164.497 105.055C164.9 105.055 165.297 104.994 165.7 104.866C166.103 104.739 166.488 104.562 166.855 104.325C167.174 104.106 167.462 103.839 167.733 103.517C168.016 103.176 168.268 102.757 168.485 102.271C168.749 101.675 168.954 101.037 169.086 100.35C169.272 99.3952 169.411 98.1854 169.513 96.7265C169.579 95.6626 169.669 93.8268 169.784 91.2128L169.982 85.5593C172.129 85.5958 173.897 85.614 175.281 85.614C176.832 85.614 178.39 85.5958 179.954 85.5593C179.569 90.1368 179.274 94.4894 179.057 98.6171C178.841 102.745 178.679 107.596 178.558 113.164L178.564 113.158Z" fill="#0065F2"/>
<path d="M184.014 112.641C183.948 111.851 183.881 111.012 183.815 110.137C183.749 109.261 183.641 108.058 183.49 106.526L183.292 104.581C184.904 105.268 186.293 105.772 187.46 106.106C188.627 106.441 189.697 106.605 190.677 106.605C191.495 106.605 192.157 106.526 192.662 106.362C193.167 106.198 193.54 105.967 193.775 105.657C194.009 105.353 194.123 105.037 194.123 104.708C194.123 104.423 194.033 104.137 193.859 103.857C193.684 103.578 193.287 103.195 192.674 102.708C191.309 101.626 190.106 100.641 189.066 99.7599C188.025 98.8785 187.243 98.0943 186.72 97.4073C186.197 96.7204 185.794 95.9848 185.523 95.1885C185.247 94.3982 185.114 93.5776 185.114 92.7265C185.114 91.2311 185.511 89.8329 186.305 88.538C187.099 87.2432 188.266 86.301 189.805 85.7113C191.351 85.1277 193.227 84.8298 195.447 84.8298C197.666 84.8298 200.727 85.152 204.329 85.8025L204.732 93.3709C202.712 92.5076 200.769 92.076 198.905 92.076C197.588 92.076 196.631 92.2219 196.042 92.5137C195.453 92.8055 195.152 93.2554 195.152 93.8572C195.152 94.0578 195.188 94.2462 195.254 94.4225C195.32 94.6049 195.441 94.7934 195.615 94.9879C195.789 95.1885 196.006 95.3891 196.264 95.5958C196.523 95.8025 197.155 96.2827 198.153 97.0426C199.151 97.8025 199.939 98.4225 200.504 98.9089C201.437 99.7052 202.152 100.435 202.645 101.109C203.139 101.784 203.512 102.508 203.77 103.274C204.029 104.04 204.161 104.848 204.161 105.693C204.161 106.976 203.872 108.149 203.295 109.219C202.718 110.289 201.852 111.188 200.691 111.912C199.53 112.635 198.273 113.134 196.926 113.413C195.579 113.693 194.184 113.833 192.746 113.833C191.778 113.833 190.563 113.742 189.108 113.565C187.646 113.383 185.95 113.067 184.014 112.617V112.641Z" fill="#0065F2"/>
<path d="M208.81 113.158C209.044 110.957 209.219 109.146 209.333 107.723C209.447 106.301 209.561 104.477 209.67 102.258C209.778 100.04 209.874 97.5897 209.958 94.9027C210.042 92.2158 210.109 89.0973 210.157 85.5471C212.328 85.5836 214.066 85.6018 215.365 85.6018C216.55 85.6018 218.252 85.5836 220.471 85.5471C220.182 88.9514 219.978 91.9483 219.852 94.5258C219.725 97.1033 219.647 99.8328 219.611 102.72C219.545 107.839 219.509 111.316 219.509 113.158C217.524 113.122 215.816 113.103 214.385 113.103C212.953 113.103 211.107 113.122 208.81 113.158ZM210.385 82.0882C210.488 79.9423 210.536 78.2462 210.536 77.0061C210.536 76.6474 210.53 76.1611 210.512 75.5471C212.532 75.5836 214.222 75.6018 215.594 75.6018C217.476 75.6018 219.13 75.5836 220.549 75.5471C220.501 76.1064 220.465 76.5745 220.447 76.9514L220.297 80.307C220.26 80.8116 220.248 81.4073 220.248 82.0942C218.595 82.0578 217.013 82.0395 215.497 82.0395C213.982 82.0395 212.226 82.0578 210.391 82.0942L210.385 82.0882Z" fill="#0065F2"/>
<path d="M224.699 113.158C225.18 109.067 225.547 104.544 225.805 99.5959C226.064 94.6475 226.214 89.9667 226.262 85.5472C228.265 85.5837 229.997 85.6019 231.446 85.6019C233.13 85.6019 234.754 85.5837 236.306 85.5472L236.053 89.225C236.607 88.5564 237.082 88.0336 237.479 87.6445C237.882 87.2554 238.375 86.8785 238.97 86.5077C239.559 86.1369 240.191 85.839 240.859 85.6019C241.526 85.3709 242.254 85.1825 243.048 85.0488C243.842 84.915 244.671 84.8481 245.538 84.8481C246.74 84.8481 247.913 84.988 249.05 85.2676C250.192 85.5472 251.149 85.9424 251.913 86.4591C252.682 86.9697 253.32 87.6141 253.837 88.3801C254.354 89.146 254.697 89.9728 254.865 90.8542C255.034 91.7357 255.118 92.6475 255.118 93.5837C255.118 94.2706 255.052 95.7478 254.914 98.0153L254.481 107.803C254.396 109.73 254.354 111.517 254.354 113.158C252.67 113.122 251.095 113.103 249.627 113.103C247.642 113.103 245.838 113.122 244.202 113.158C244.353 111.517 244.515 109.079 244.684 105.845C244.852 102.611 244.936 100.331 244.936 99.0184C244.936 96.9819 244.575 95.5594 243.848 94.757C243.12 93.9545 242.206 93.5533 241.105 93.5533C240.137 93.5533 239.223 93.8937 238.363 94.5807C237.503 95.2676 236.841 96.2646 236.372 97.5715C235.903 98.8785 235.572 101.031 235.38 104.021C235.187 107.012 235.055 110.058 234.989 113.158C233.323 113.122 231.693 113.103 230.111 113.103C228.445 113.103 226.635 113.122 224.687 113.158H224.699Z" fill="#0065F2"/>
<path d="M284.551 104.988C284.335 106.07 283.92 108.684 283.3 112.83C281.364 113.243 279.74 113.517 278.423 113.657C277.106 113.79 275.77 113.857 274.417 113.857C272.433 113.857 270.604 113.711 268.938 113.413C267.272 113.116 265.829 112.593 264.62 111.833C263.411 111.079 262.395 110.137 261.577 109.012C260.759 107.888 260.14 106.55 259.713 105C259.286 103.45 259.075 101.857 259.075 100.216C259.075 97.912 259.502 95.6567 260.35 93.45C261.198 91.2433 262.299 89.5168 263.64 88.2767C264.981 87.0366 266.533 86.1491 268.283 85.6323C270.033 85.1095 271.825 84.8481 273.665 84.8481C275.506 84.8481 277.382 85.0852 279.108 85.5655C280.834 86.0457 282.296 86.8785 283.499 88.064C284.701 89.2494 285.555 90.5989 286.061 92.0943C286.566 93.5898 286.824 95.2068 286.824 96.9333C286.824 97.9606 286.716 99.1035 286.5 100.368L268.956 100.392C268.938 100.678 268.932 100.939 268.932 101.17C268.932 103.11 269.576 104.538 270.857 105.45C272.144 106.368 273.708 106.824 275.56 106.824C276.661 106.824 277.917 106.684 279.325 106.404C280.732 106.125 282.476 105.651 284.539 104.988H284.551ZM269.161 96.2524H277.418C277.436 95.9484 277.442 95.6871 277.442 95.4682C277.442 94.532 277.286 93.7296 276.979 93.0609C276.673 92.3922 276.227 91.9059 275.65 91.6019C275.073 91.298 274.429 91.1399 273.714 91.1399C273.214 91.1399 272.727 91.225 272.264 91.3953C271.795 91.5655 271.374 91.8208 271.001 92.1551C270.628 92.4895 270.316 92.8725 270.063 93.3041C269.81 93.7357 269.63 94.1551 269.51 94.5624C269.395 94.9697 269.275 95.529 269.161 96.2524Z" fill="#0065F2"/>
<path d="M289.91 112.641C289.844 111.851 289.778 111.012 289.712 110.137C289.646 109.261 289.537 108.058 289.387 106.526L289.188 104.581C290.8 105.268 292.19 105.772 293.356 106.106C294.523 106.441 295.594 106.605 296.574 106.605C297.392 106.605 298.053 106.526 298.559 106.362C299.064 106.198 299.437 105.967 299.671 105.657C299.906 105.353 300.02 105.037 300.02 104.708C300.02 104.423 299.93 104.137 299.755 103.857C299.581 103.578 299.184 103.195 298.571 102.708C297.205 101.626 296.002 100.641 294.962 99.7599C293.922 98.8785 293.14 98.0943 292.617 97.4073C292.093 96.7204 291.69 95.9848 291.42 95.1885C291.143 94.3982 291.011 93.5776 291.011 92.7265C291.011 91.2311 291.408 89.8329 292.202 88.538C292.995 87.2432 294.162 86.301 295.702 85.7113C297.247 85.1277 299.124 84.8298 301.343 84.8298C303.562 84.8298 306.623 85.152 310.226 85.8025L310.629 93.3709C308.608 92.5076 306.666 92.076 304.801 92.076C303.484 92.076 302.528 92.2219 301.938 92.5137C301.349 92.8055 301.048 93.2554 301.048 93.8572C301.048 94.0578 301.084 94.2462 301.151 94.4225C301.217 94.6049 301.337 94.7934 301.511 94.9879C301.686 95.1885 301.902 95.3891 302.161 95.5958C302.42 95.8025 303.051 96.2827 304.049 97.0426C305.048 97.8025 305.836 98.4225 306.401 98.9089C307.333 99.7052 308.049 100.435 308.542 101.109C309.035 101.784 309.408 102.508 309.667 103.274C309.925 104.04 310.058 104.848 310.058 105.693C310.058 106.976 309.769 108.149 309.191 109.219C308.614 110.289 307.748 111.188 306.587 111.912C305.427 112.635 304.17 113.134 302.823 113.413C301.475 113.693 300.08 113.833 298.643 113.833C297.674 113.833 296.46 113.742 295.004 113.565C293.543 113.383 291.847 113.067 289.91 112.617V112.641Z" fill="#0065F2"/>
<path d="M314.652 112.641C314.586 111.851 314.52 111.012 314.454 110.137C314.388 109.261 314.279 108.058 314.129 106.526L313.931 104.581C315.542 105.268 316.932 105.772 318.098 106.106C319.265 106.441 320.336 106.605 321.316 106.605C322.134 106.605 322.795 106.526 323.301 106.362C323.806 106.198 324.179 105.967 324.413 105.657C324.648 105.353 324.762 105.037 324.762 104.708C324.762 104.423 324.672 104.137 324.497 103.857C324.323 103.578 323.926 103.195 323.313 102.708C321.947 101.626 320.745 100.641 319.704 99.7599C318.664 98.8785 317.882 98.0943 317.359 97.4073C316.835 96.7204 316.433 95.9848 316.162 95.1885C315.885 94.3982 315.753 93.5776 315.753 92.7265C315.753 91.2311 316.15 89.8329 316.944 88.538C317.738 87.2432 318.904 86.301 320.444 85.7113C321.99 85.1277 323.866 84.8298 326.085 84.8298C328.304 84.8298 331.366 85.152 334.968 85.8025L335.371 93.3709C333.35 92.5076 331.408 92.076 329.543 92.076C328.226 92.076 327.27 92.2219 326.681 92.5137C326.091 92.8055 325.791 93.2554 325.791 93.8572C325.791 94.0578 325.827 94.2462 325.893 94.4225C325.959 94.6049 326.079 94.7934 326.254 94.9879C326.428 95.1885 326.645 95.3891 326.903 95.5958C327.162 95.8025 327.793 96.2827 328.792 97.0426C329.79 97.8025 330.578 98.4225 331.143 98.9089C332.075 99.7052 332.791 100.435 333.284 101.109C333.777 101.784 334.15 102.508 334.409 103.274C334.667 104.04 334.8 104.848 334.8 105.693C334.8 106.976 334.511 108.149 333.934 109.219C333.356 110.289 332.49 111.188 331.33 111.912C330.169 112.635 328.912 113.134 327.565 113.413C326.218 113.693 324.822 113.833 323.385 113.833C322.417 113.833 321.202 113.742 319.746 113.565C318.285 113.383 316.589 113.067 314.652 112.617V112.641Z" fill="#0065F2"/>
<path d="M340.002 113.158C340.351 109.194 340.585 106.076 340.7 103.802C340.868 100.702 341.03 96.4468 341.187 91.0364C341.343 85.6261 341.421 81.8146 341.421 79.6018C341.421 78.8115 341.415 77.693 341.397 76.2462C343.616 76.3009 345.379 76.3252 346.678 76.3252C348.494 76.3252 350.617 76.2826 353.035 76.2036C355.452 76.1246 357.533 76.082 359.265 76.082C361.352 76.082 362.838 76.1428 363.722 76.2705C364.888 76.4346 365.911 76.7203 366.789 77.1337C367.667 77.5471 368.395 78.0638 368.978 78.6778C369.628 79.4012 370.139 80.2644 370.506 81.2735C370.921 82.4285 371.131 83.6626 371.131 84.9756C371.131 86.003 371.011 86.9878 370.77 87.924C370.53 88.8601 370.187 89.693 369.742 90.4225C369.297 91.1519 368.804 91.7598 368.25 92.2462C367.697 92.7325 367.162 93.1094 366.639 93.3829C366.115 93.6504 365.406 93.924 364.522 94.1915C365.406 94.3556 366.115 94.538 366.651 94.7446C367.186 94.9513 367.757 95.2857 368.365 95.7477C368.972 96.2097 369.519 96.7994 370.006 97.5167C370.488 98.2401 370.854 99.0425 371.095 99.9361C371.336 100.83 371.456 101.772 371.456 102.763C371.456 104.131 371.245 105.419 370.83 106.629C370.415 107.839 369.832 108.872 369.08 109.742C368.449 110.483 367.619 111.109 366.602 111.632C365.586 112.155 364.54 112.514 363.475 112.714C362.609 112.86 361.027 112.97 358.736 113.036C356.445 113.109 354.009 113.146 351.441 113.146L344.861 113.122L340.008 113.146L340.002 113.158ZM350.575 105.748H355.386C356.655 105.748 357.587 105.669 358.189 105.505C358.922 105.304 359.482 105.043 359.867 104.72C360.252 104.398 360.558 103.954 360.781 103.395C361.003 102.836 361.118 102.216 361.118 101.529C361.118 100.933 361.027 100.41 360.841 99.9605C360.655 99.5106 360.384 99.1337 360.017 98.8237C359.65 98.5197 359.199 98.2948 358.664 98.1611C358.129 98.0273 357.299 97.9605 356.162 97.9605H350.882L350.575 105.748ZM351.146 90.6352H354.707C355.873 90.6352 356.709 90.6048 357.202 90.538C357.696 90.4772 358.177 90.3617 358.646 90.1975C359.115 90.0334 359.518 89.7659 359.861 89.389C360.203 89.0121 360.444 88.5866 360.588 88.1185C360.733 87.6504 360.799 87.1823 360.799 86.7143C360.799 86.0456 360.654 85.4498 360.36 84.927C360.065 84.4042 359.596 84.0152 358.946 83.7659C358.297 83.5106 357.305 83.389 355.969 83.389H351.465L351.152 90.6352H351.146Z" fill="#0065F2"/>
<path d="M390.845 84.8481C392.914 84.8481 394.905 85.1886 396.811 85.8755C398.724 86.5624 400.336 87.5472 401.653 88.836C402.97 90.1247 403.944 91.6323 404.57 93.3527C405.195 95.0731 405.508 96.9272 405.508 98.9089C405.508 100.891 405.231 102.672 404.672 104.41C404.113 106.149 403.168 107.784 401.833 109.304C400.498 110.83 398.802 111.967 396.739 112.727C394.676 113.486 392.499 113.863 390.196 113.863C388.079 113.863 386.04 113.529 384.091 112.86C382.143 112.192 380.507 111.219 379.202 109.942C377.891 108.66 376.911 107.128 376.249 105.347C375.587 103.565 375.263 101.687 375.263 99.7235C375.263 97.76 375.581 95.8816 376.225 94.1004C376.868 92.3132 377.885 90.7144 379.28 89.2858C380.675 87.8573 382.395 86.7691 384.446 86.0032C386.497 85.2372 388.632 84.8542 390.851 84.8542L390.845 84.8481ZM390.671 92.7995C389.6 92.7995 388.65 93.0974 387.82 93.6931C386.984 94.2889 386.359 95.1582 385.932 96.301C385.505 97.4439 385.294 98.6962 385.294 100.046C385.294 102.027 385.751 103.547 386.672 104.599C387.592 105.657 388.74 106.179 390.124 106.179C391.176 106.179 392.114 105.875 392.95 105.274C393.786 104.672 394.412 103.778 394.839 102.599C395.266 101.42 395.476 100.149 395.476 98.7995C395.476 97.681 395.308 96.6719 394.977 95.7722C394.64 94.8725 394.099 94.1491 393.335 93.608C392.571 93.067 391.687 92.7995 390.671 92.7995Z" fill="#0065F2"/>
<path d="M424.103 84.8481C426.172 84.8481 428.163 85.1886 430.069 85.8755C431.982 86.5624 433.593 87.5472 434.911 88.836C436.228 90.1247 437.202 91.6323 437.827 93.3527C438.453 95.0731 438.766 96.9272 438.766 98.9089C438.766 100.891 438.489 102.672 437.93 104.41C437.37 106.149 436.426 107.784 435.091 109.304C433.756 110.83 432.06 111.967 429.997 112.727C427.934 113.486 425.757 113.863 423.454 113.863C421.337 113.863 419.298 113.529 417.349 112.86C415.401 112.192 413.765 111.219 412.46 109.942C411.149 108.66 410.168 107.128 409.507 105.347C408.845 103.565 408.521 101.687 408.521 99.7235C408.521 97.76 408.839 95.8816 409.483 94.1004C410.126 92.3132 411.143 90.7144 412.538 89.2858C413.933 87.8573 415.653 86.7691 417.704 86.0032C419.755 85.2372 421.89 84.8542 424.109 84.8542L424.103 84.8481ZM423.929 92.7995C422.858 92.7995 421.908 93.0974 421.078 93.6931C420.242 94.2889 419.617 95.1582 419.19 96.301C418.763 97.4439 418.552 98.6962 418.552 100.046C418.552 102.027 419.009 103.547 419.929 104.599C420.849 105.657 421.998 106.179 423.381 106.179C424.434 106.179 425.372 105.875 426.208 105.274C427.044 104.672 427.67 103.778 428.097 102.599C428.524 101.42 428.734 100.149 428.734 98.7995C428.734 97.681 428.566 96.6719 428.235 95.7722C427.898 94.8725 427.357 94.1491 426.593 93.608C425.829 93.067 424.945 92.7995 423.929 92.7995Z" fill="#0065F2"/>
<path d="M442.345 113.158C442.579 110.854 442.742 108.976 442.844 107.535C442.976 105.571 443.109 103.109 443.241 100.155L443.517 93.7476C443.632 90.8479 443.716 88.0698 443.764 85.4194C443.83 82.2461 443.866 79.1944 443.866 76.2522C446.206 76.2887 447.956 76.3069 449.129 76.3069C450.482 76.3069 452.088 76.2887 453.94 76.2522C453.555 80.9756 453.2 86.8419 452.881 93.8571C452.563 100.872 452.4 107.304 452.4 113.164C450.47 113.128 448.834 113.109 447.499 113.109C445.965 113.109 444.251 113.128 442.351 113.164L442.345 113.158ZM453.381 97.6261L457.687 90.927L460.916 85.5531C463.22 85.5896 464.964 85.6078 466.149 85.6078C467.784 85.6078 469.715 85.5896 471.952 85.5531L466.973 92.5501C465.806 94.1549 464.609 95.8814 463.394 97.7355C464.561 100.064 467.376 105.207 471.826 113.164C469.871 113.128 468.115 113.109 466.546 113.109C464.976 113.109 463.112 113.128 461.043 113.164L459.491 109.784C458.938 108.611 458.463 107.626 458.066 106.836C457.915 106.514 456.773 104.301 454.638 100.204L453.387 97.6321L453.381 97.6261Z" fill="#0065F2"/>
<path d="M487.631 113.158L488.13 106.234L488.774 92.7143L489.05 83.1398C489.068 82.1124 489.074 81.0851 489.074 80.0577C489.074 79.2857 489.068 78.0091 489.05 76.2462C491.252 76.3009 493.02 76.3252 494.355 76.3252C495.69 76.3252 497.398 76.2826 499.635 76.2036C501.872 76.1246 503.767 76.082 505.319 76.082C507.556 76.082 509.21 76.234 510.286 76.544C511.363 76.848 512.337 77.3343 513.203 77.9908C514.069 78.6474 514.791 79.4194 515.356 80.3009C515.921 81.1823 516.348 82.1915 516.631 83.3161C516.914 84.4407 517.058 85.5896 517.058 86.7629C517.058 89.1763 516.517 91.389 515.434 93.389C514.352 95.389 512.824 96.8845 510.858 97.8753C508.891 98.8662 506.678 99.3647 504.224 99.3647C503.322 99.3647 502.281 99.2553 501.097 99.0425C500.964 98.2158 500.712 96.9817 500.345 95.3404C499.978 93.6991 499.677 92.4832 499.443 91.693C500.176 91.8571 500.946 91.9361 501.746 91.9361C503.43 91.9361 504.687 91.4984 505.511 90.6231C506.335 89.7477 506.75 88.6839 506.75 87.4194C506.75 86.8054 506.66 86.2583 506.473 85.7842C506.287 85.3039 505.998 84.9149 505.595 84.6109C505.192 84.307 504.753 84.1063 504.266 84.0152C503.779 83.924 503.232 83.8814 502.612 83.8814C501.993 83.8814 501.385 83.8997 500.736 83.9361L498.637 84.1003C498.42 87.5775 498.258 91.4437 498.144 95.6991C497.927 103.45 497.819 108.1 497.819 109.65V113.164L492.833 113.109C492.13 113.109 490.398 113.128 487.625 113.164L487.631 113.158Z" fill="#0065F2"/>
<path d="M519.885 113.158L520.33 107.34L521.298 87.1276L521.575 76.2522C523.896 76.2887 525.64 76.3069 526.813 76.3069C528.335 76.3069 530.013 76.2887 531.847 76.2522L531.276 84.5561L530.355 105L530.157 113.164C528.371 113.146 526.759 113.14 525.322 113.14L519.885 113.164V113.158Z" fill="#0065F2"/>
<path d="M563.806 113.158C561.905 113.122 560.317 113.103 559.048 113.103C557.479 113.103 555.903 113.122 554.315 113.158L554.285 109.456C553.684 110.264 553.179 110.872 552.758 111.28C552.343 111.687 551.886 112.04 551.392 112.35C550.899 112.654 550.352 112.921 549.738 113.146C549.131 113.371 548.427 113.547 547.64 113.675C546.852 113.802 546.04 113.863 545.228 113.863C543.911 113.863 542.666 113.699 541.487 113.365C540.314 113.03 539.28 112.465 538.384 111.675C537.488 110.885 536.88 109.979 536.556 108.97C536.231 107.961 536.068 106.787 536.068 105.456C536.068 105.134 536.092 104.629 536.141 103.942L536.543 97.8025C536.658 95.5471 536.766 93.0547 536.868 90.3131C536.934 88.6353 536.97 87.0487 536.97 85.5532C539.039 85.5897 540.802 85.6079 542.251 85.6079C543.7 85.6079 545.336 85.5897 547.104 85.5532L546.328 95.8572C546.208 97.4256 546.148 98.4955 546.142 99.0608C546.136 99.6262 546.13 100.009 546.13 100.21C546.13 102.1 546.485 103.383 547.195 104.052C547.904 104.72 548.752 105.055 549.738 105.055C550.141 105.055 550.538 104.994 550.941 104.866C551.344 104.739 551.729 104.562 552.096 104.325C552.415 104.106 552.703 103.839 552.974 103.517C553.257 103.176 553.509 102.757 553.726 102.271C553.99 101.675 554.195 101.037 554.327 100.35C554.514 99.3952 554.652 98.1854 554.754 96.7265C554.82 95.6626 554.911 93.8268 555.025 91.2128L555.223 85.5593C557.37 85.5958 559.139 85.614 560.522 85.614C562.073 85.614 563.631 85.5958 565.195 85.5593C564.81 90.1368 564.515 94.4894 564.299 98.6171C564.082 102.745 563.92 107.596 563.8 113.164L563.806 113.158Z" fill="#0065F2"/>
<path d="M569.255 112.641C569.189 111.851 569.123 111.012 569.056 110.137C568.99 109.261 568.882 108.058 568.732 106.526L568.533 104.581C570.145 105.268 571.534 105.772 572.701 106.106C573.868 106.441 574.938 106.605 575.919 106.605C576.736 106.605 577.398 106.526 577.903 106.362C578.408 106.198 578.781 105.967 579.016 105.657C579.25 105.353 579.365 105.037 579.365 104.708C579.365 104.423 579.274 104.137 579.1 103.857C578.926 103.578 578.529 103.195 577.915 102.708C576.55 101.626 575.347 100.641 574.307 99.7599C573.266 98.8785 572.484 98.0943 571.961 97.4073C571.438 96.7204 571.035 95.9848 570.764 95.1885C570.494 94.3921 570.356 93.5776 570.356 92.7265C570.356 91.2311 570.752 89.8329 571.546 88.538C572.34 87.2432 573.507 86.301 575.047 85.7113C576.592 85.1277 578.469 84.8298 580.688 84.8298C582.907 84.8298 585.968 85.152 589.571 85.8025L589.974 93.3709C587.953 92.5076 586.01 92.076 584.146 92.076C582.829 92.076 581.873 92.2219 581.283 92.5137C580.688 92.8055 580.393 93.2554 580.393 93.8572C580.393 94.0578 580.429 94.2462 580.495 94.4225C580.561 94.6049 580.682 94.7934 580.856 94.9879C581.031 95.1885 581.247 95.3891 581.506 95.5958C581.764 95.8025 582.396 96.2827 583.394 97.0426C584.392 97.8025 585.18 98.4225 585.746 98.9089C586.678 99.7052 587.394 100.435 587.887 101.109C588.38 101.784 588.753 102.508 589.011 103.274C589.27 104.04 589.402 104.848 589.402 105.693C589.402 106.976 589.114 108.149 588.536 109.219C587.959 110.289 587.093 111.188 585.932 111.912C584.771 112.635 583.52 113.134 582.167 113.413C580.814 113.693 579.425 113.833 577.987 113.833C577.019 113.833 575.804 113.742 574.349 113.565C572.887 113.383 571.191 113.067 569.255 112.617V112.641Z" fill="#0065F2"/>
</g>
<defs>
<clipPath id="clip0_3635_576">
<rect width="590" height="134" fill="white"/>
</clipPath>
</defs>
</svg>
