<svg width="142" height="134" viewBox="0 0 142 134" fill="none" xmlns="http://www.w3.org/2000/svg">
<path d="M51.1126 93.808C51.1126 100.003 49.3643 105.183 45.8642 109.345C42.1324 113.773 37.2641 115.983 31.2592 115.983C26.8867 115.983 23.3612 114.716 20.6791 112.174C20.4764 111.998 20.2991 111.908 20.1543 111.908C19.8611 111.908 19.5932 112.455 19.3471 113.546C19.0974 114.637 18.8006 115.241 18.4495 115.36C17.9536 115.508 13.7983 115.583 5.98722 115.583C4.15209 115.583 3.23271 115.245 3.23271 114.565C3.23271 114.475 3.26167 114.255 3.31958 113.902C3.90234 109.212 4.19552 100.27 4.19552 87.0799C4.19552 73.8901 3.75755 63.5154 2.88523 54.1919L2.8418 53.7059C2.8418 53.2343 3.29425 52.9679 4.19914 52.9103C4.83981 52.8815 7.37714 52.6583 11.8075 52.248C14.9276 51.9528 17.4613 51.8052 19.4159 51.8052C19.9697 51.8052 20.2448 52.2912 20.2448 53.2667C20.2448 54.4187 20.1724 55.9378 20.0276 57.8277C19.8539 60.1604 19.7489 61.6939 19.7199 62.4319C19.5751 65.3549 19.5028 69.3363 19.5028 74.3833C19.5028 75.2977 19.7344 75.7548 20.2013 75.7548C20.433 75.7548 20.6538 75.636 20.8565 75.4021C23.4807 72.569 26.9193 71.1543 31.1759 71.1543C37.5609 71.1543 42.545 73.3537 46.1284 77.7491C49.4512 81.8205 51.1126 87.1771 51.1126 93.8152V93.808ZM35.2842 93.322C35.2842 90.8741 34.5421 88.8006 33.0545 87.1015C31.5668 85.406 29.6304 84.5564 27.2378 84.5564C24.8453 84.5564 22.8581 85.406 21.4429 87.1015C20.0276 88.797 19.3218 90.8993 19.3218 93.4084C19.3218 95.9175 20.0059 98.099 21.3777 99.6937C22.8364 101.375 24.8163 102.217 27.3247 102.217C29.8331 102.217 31.7695 101.346 33.2282 99.6073C34.5964 97.9838 35.2842 95.8887 35.2842 93.322Z" fill="#0065F2"/>
<path d="M103.842 93.808C103.842 100.003 102.094 105.183 98.5937 109.345C94.8619 113.773 89.9936 115.983 83.9887 115.983C79.6162 115.983 76.0907 114.716 73.4086 112.174C73.2059 111.998 73.0286 111.908 72.8838 111.908C72.5906 111.908 72.3227 112.455 72.0766 113.546C71.8269 114.637 71.53 115.241 71.1789 115.36C70.6831 115.508 66.5278 115.583 58.7167 115.583C56.8816 115.583 55.9622 115.245 55.9622 114.565C55.9622 114.475 55.9912 114.255 56.0491 113.902C56.6318 109.212 56.925 100.27 56.925 87.0799C56.925 73.8901 56.487 63.5154 55.6147 54.1919L55.5713 53.7059C55.5713 53.2343 56.0237 52.9679 56.9286 52.9103C57.5693 52.8815 60.1066 52.6583 64.537 52.248C67.6571 51.9528 70.1908 51.8052 72.1454 51.8052C72.6992 51.8052 72.9743 52.2912 72.9743 53.2667C72.9743 54.4187 72.9019 55.9378 72.7571 57.8277C72.5833 60.1604 72.4784 61.6939 72.4494 62.4319C72.3046 65.3549 72.2322 69.3363 72.2322 74.3833C72.2322 75.2977 72.4639 75.7548 72.9308 75.7548C73.1625 75.7548 73.3833 75.636 73.586 75.4021C76.2102 72.569 79.6488 71.1543 83.9054 71.1543C90.2904 71.1543 95.2745 73.3537 98.8579 77.7491C102.181 81.8205 103.842 87.1771 103.842 93.8152V93.808ZM88.0136 93.322C88.0136 90.8741 87.2716 88.8006 85.784 87.1015C84.2963 85.406 82.3598 84.5564 79.9673 84.5564C77.5748 84.5564 75.5876 85.406 74.1723 87.1015C72.7571 88.797 72.0513 90.8993 72.0513 93.4084C72.0513 95.9175 72.7354 98.099 74.1072 99.6937C75.5659 101.375 77.5458 102.217 80.0542 102.217C82.5625 102.217 84.499 101.346 85.9577 99.6073C87.3259 97.9838 88.0136 95.8887 88.0136 93.322Z" fill="#0065F2"/>
<path d="M116.848 52.0461C115.393 52.0461 113.384 51.9921 110.818 51.8805C107.907 51.7725 105.884 51.7149 104.744 51.7149C104.773 52.8452 104.845 54.9367 104.957 57.993C105.044 60.6101 105.084 62.6872 105.084 64.2279C105.084 65.3006 102.93 65.837 98.6232 65.837C94.3159 65.837 92.3794 65.4914 92.3794 64.8039C92.3794 63.0976 92.4228 60.8945 92.5061 58.1982C92.5929 54.4832 92.6472 52.2945 92.6762 51.6321C85.2054 51.8517 81.2564 51.9633 80.8257 51.9633C80.3117 51.9633 80.0547 51.5385 80.0547 50.6817C80.0547 50.4082 80.1959 48.8386 80.4818 45.9732C80.5108 44.3208 80.5687 42.6289 80.6519 40.8938C80.9089 40.4798 81.2926 40.2746 81.8066 40.2746C83.2037 40.2746 85.0135 40.3142 87.2396 40.397C90.204 40.4798 92.0174 40.5338 92.6726 40.5626C92.6147 38.1399 92.5857 35.5517 92.5857 32.7978V28.298C92.5857 27.776 92.9549 27.5132 93.6969 27.5132C94.7502 27.5132 96.3139 27.4844 98.3807 27.4305C100.447 27.3765 101.997 27.3477 103.021 27.3477C104.418 27.3477 105.117 27.5816 105.117 28.0496C105.117 29.4284 105.066 31.5199 104.968 34.3277C104.867 37.1356 104.82 39.2415 104.82 40.6454C110.923 40.5374 115.071 40.4798 117.268 40.4798C117.865 40.4798 118.165 40.7282 118.165 41.2214C118.165 41.5238 118.01 43.2193 117.695 46.3008C117.782 47.4563 117.695 49.177 117.438 51.4629C117.322 51.8481 117.123 52.0425 116.841 52.0425L116.848 52.0461Z" fill="#0065F2"/>
</svg>
